<svg width="400" height="300" xmlns="http://www.w3.org/2000/svg">
  <rect width="400" height="300" fill="#f8f9fa"/>
  <text x="200" y="25" text-anchor="middle" font-family="Arial" font-size="16" font-weight="bold">Guard Ring Layout Structure</text>
  
  <!-- Outer P+ Guard Ring -->
  <rect x="50" y="60" width="300" height="180" fill="none" stroke="red" stroke-width="8"/>
  <text x="45" y="55" text-anchor="end" font-family="Arial" font-size="12" fill="red">P+ Guard Ring (to VSS)</text>
  
  <!-- Inner N+ Guard Ring -->
  <rect x="80" y="90" width="240" height="120" fill="none" stroke="blue" stroke-width="8"/>
  <text x="85" y="85" font-family="Arial" font-size="12" fill="blue">N+ Guard Ring (to VDD)</text>
  
  <!-- Circuit Block -->
  <rect x="120" y="120" width="160" height="60" fill="#e6e6e6" stroke="black" stroke-width="2"/>
  <text x="200" y="155" text-anchor="middle" font-family="Arial" font-size="14">Protected Circuit</text>
  
  <!-- Contacts on guard rings -->
  <!-- P+ contacts -->
  <circle cx="60" cy="70" r="3" fill="black"/>
  <circle cx="80" cy="70" r="3" fill="black"/>
  <circle cx="100" cy="70" r="3" fill="black"/>
  <circle cx="120" cy="70" r="3" fill="black"/>
  <circle cx="140" cy="70" r="3" fill="black"/>
  
  <!-- N+ contacts -->
  <circle cx="90" cy="100" r="3" fill="black"/>
  <circle cx="110" cy="100" r="3" fill="black"/>
  <circle cx="130" cy="100" r="3" fill="black"/>
  <circle cx="150" cy="100" r="3" fill="black"/>
  
  <!-- Dimension arrows -->
  <line x1="58" y1="250" x2="82" y2="250" stroke="black" stroke-width="1" marker-start="url(#arrowstart)" marker-end="url(#arrowend)"/>
  <text x="70" y="265" text-anchor="middle" font-family="Arial" font-size="10">2μm min</text>
  
  <!-- Cross-section indicator -->
  <line x1="200" y1="60" x2="200" y2="240" stroke="green" stroke-width="2" stroke-dasharray="10,5"/>
  <text x="205" y="150" font-family="Arial" font-size="10" fill="green">A-A'</text>
  
  <!-- Legend -->
  <text x="50" y="280" font-family="Arial" font-size="11" font-weight="bold">Key Benefits:</text>
  <text x="50" y="295" font-family="Arial" font-size="10">• Collects minority carriers • Prevents latchup triggering</text>
  
  <!-- Arrow markers -->
  <defs>
    <marker id="arrowstart" markerWidth="10" markerHeight="10" refX="0" refY="3" orient="auto">
      <path d="M9,0 L9,6 L0,3 z" fill="black"/>
    </marker>
    <marker id="arrowend" markerWidth="10" markerHeight="10" refX="9" refY="3" orient="auto">
      <path d="M0,0 L0,6 L9,3 z" fill="black"/>
    </marker>
  </defs>
</svg>