<svg width="400" height="300" xmlns="http://www.w3.org/2000/svg">
  <rect width="400" height="300" fill="#f8f9fa"/>
  <text x="200" y="25" text-anchor="middle" font-family="Arial" font-size="16" font-weight="bold">IC Layout - Spacing Rules</text>
  
  <!-- N-well -->
  <rect x="50" y="60" width="150" height="100" fill="#e6f2ff" stroke="blue" stroke-width="2"/>
  <text x="125" y="55" text-anchor="middle" font-family="Arial" font-size="12" fill="blue">N-well</text>
  
  <!-- P-well -->
  <rect x="220" y="60" width="150" height="100" fill="#ffe6e6" stroke="red" stroke-width="2"/>
  <text x="295" y="55" text-anchor="middle" font-family="Arial" font-size="12" fill="red">P-well</text>
  
  <!-- Well taps -->
  <rect x="70" y="100" width="20" height="20" fill="blue" stroke="black"/>
  <text x="80" y="95" text-anchor="middle" font-family="Arial" font-size="10">N+</text>
  
  <rect x="160" y="100" width="20" height="20" fill="blue" stroke="black"/>
  <text x="170" y="95" text-anchor="middle" font-family="Arial" font-size="10">N+</text>
  
  <rect x="240" y="100" width="20" height="20" fill="red" stroke="black"/>
  <text x="250" y="95" text-anchor="middle" font-family="Arial" font-size="10">P+</text>
  
  <rect x="330" y="100" width="20" height="20" fill="red" stroke="black"/>
  <text x="340" y="95" text-anchor="middle" font-family="Arial" font-size="10">P+</text>
  
  <!-- Spacing annotations -->
  <line x1="90" y1="110" x2="160" y2="110" stroke="green" stroke-width="1"/>
  <line x1="90" y1="105" x2="90" y2="115" stroke="green" stroke-width="1"/>
  <line x1="160" y1="105" x2="160" y2="115" stroke="green" stroke-width="1"/>
  <text x="125" y="130" text-anchor="middle" font-family="Arial" font-size="10" fill="green">Max 20μm</text>
  
  <line x1="200" y1="110" x2="220" y2="110" stroke="orange" stroke-width="1"/>
  <line x1="200" y1="105" x2="200" y2="115" stroke="orange" stroke-width="1"/>
  <line x1="220" y1="105" x2="220" y2="115" stroke="orange" stroke-width="1"/>
  <text x="210" y="130" text-anchor="middle" font-family="Arial" font-size="10" fill="orange">Min 15μm</text>
  
  <!-- Guard ring -->
  <rect x="40" y="50" width="170" height="120" fill="none" stroke="green" stroke-width="4" stroke-dasharray="5,5"/>
  <text x="45" y="45" font-family="Arial" font-size="10" fill="green">Guard Ring</text>
  
  <!-- Annotations -->
  <text x="200" y="200" text-anchor="middle" font-family="Arial" font-size="12" font-weight="bold">Critical Spacing Rules:</text>
  <text x="200" y="220" text-anchor="middle" font-family="Arial" font-size="11">• Well tap spacing: 20μm max</text>
  <text x="200" y="235" text-anchor="middle" font-family="Arial" font-size="11">• Well-to-well spacing: 15μm min</text>
  <text x="200" y="250" text-anchor="middle" font-family="Arial" font-size="11">• Guard ring width: 2μm min</text>
</svg>