<svg width="400" height="300" xmlns="http://www.w3.org/2000/svg">
  <rect width="400" height="300" fill="#f8f9fa"/>
  <text x="200" y="30" text-anchor="middle" font-family="Arial" font-size="16" font-weight="bold">RC-Triggered Power Clamp</text>
  
  <!-- RC Network -->
  <rect x="50" y="60" width="40" height="20" fill="none" stroke="black" stroke-width="2"/>
  <text x="70" y="75" text-anchor="middle" font-family="Arial" font-size="12">R</text>
  
  <rect x="50" y="100" width="40" height="40" fill="none" stroke="black" stroke-width="2"/>
  <line x1="50" y1="120" x2="90" y2="120" stroke="black" stroke-width="2"/>
  <text x="70" y="125" text-anchor="middle" font-family="Arial" font-size="12">C</text>
  
  <!-- Trigger -->
  <line x1="90" y1="70" x2="120" y2="70" stroke="black" stroke-width="2"/>
  <line x1="90" y1="120" x2="120" y2="120" stroke="black" stroke-width="2"/>
  <line x1="120" y1="70" x2="120" y2="120" stroke="black" stroke-width="2"/>
  
  <!-- Inverter Chain -->
  <polygon points="130,85 130,105 150,95" fill="none" stroke="black" stroke-width="2"/>
  <circle cx="155" cy="95" r="5" fill="none" stroke="black" stroke-width="2"/>
  <polygon points="170,85 170,105 190,95" fill="none" stroke="black" stroke-width="2"/>
  
  <!-- Big NMOS -->
  <rect x="220" y="80" width="60" height="60" fill="none" stroke="black" stroke-width="2"/>
  <line x1="190" y1="95" x2="220" y2="95" stroke="black" stroke-width="2"/>
  <text x="250" y="115" text-anchor="middle" font-family="Arial" font-size="12">Big NMOS</text>
  
  <!-- Power Rails -->
  <line x1="30" y1="50" x2="350" y2="50" stroke="red" stroke-width="3"/>
  <text x="360" y="55" font-family="Arial" font-size="12" fill="red">VDD</text>
  
  <line x1="30" y1="160" x2="350" y2="160" stroke="blue" stroke-width="3"/>
  <text x="360" y="165" font-family="Arial" font-size="12" fill="blue">VSS</text>
  
  <!-- Connections -->
  <line x1="70" y1="60" x2="70" y2="50" stroke="red" stroke-width="2"/>
  <line x1="70" y1="140" x2="70" y2="160" stroke="blue" stroke-width="2"/>
  <line x1="250" y1="80" x2="250" y2="50" stroke="red" stroke-width="2"/>
  <line x1="250" y1="140" x2="250" y2="160" stroke="blue" stroke-width="2"/>
</svg>